<svg xmlns="http://www.w3.org/2000/svg" height="164" width="164" fill-rule="evenodd"><path d="M133.568 164H30.272C13.553 164 0 150.447 0 133.728V30.432C0 13.714 13.553.16 30.272.16h103.296c16.72 0 30.272 13.555 30.272 30.272v103.296c0 16.72-13.555 30.272-30.272 30.272" fill="#3f51b5"/><path d="M88.346 136.226l-.77.508-.93.602-.593.376-.72.358-1.705.834-2.092.765c-.372.153-.778.218-1.187.333l-1.27.32c-.434.133-.893.158-1.36.233l-1.437.195c-.5.05-.994.05-1.508.076l-.78.03c-.263.013-.528.023-.793-.001-1.06-.075-2.176-.098-3.287-.33-2.258-.307-4.564-1.056-6.828-2.08l-1.676-.857c-.558-.298-1.07-.677-1.615-1.018l-.808-.53-.758-.604-1.498-1.256c-1.933-1.78-3.557-3.918-4.93-6.204l-.873-1.758c-.134-.293-.287-.534-.405-.868l-.365-.965-.36-.965-.175-.483-.126-.482-.485-1.926c-.143-.643-.208-1.3-.313-1.946l-.13-.968-.04-.974-.05-1.928.117-1.898c.275-2.498.8-4.893 1.684-7.022.365-1.1.9-2.075 1.382-3.042.113-.244.256-.47.4-.695l.42-.666.83-1.28.894-1.157c.3-.37.552-.76.885-1.07l.917-.948c.305-.3.565-.62.884-.87l1.7-1.442 1.563-1.06.667-.446.627-.333 1-.512.822-.416-.718.584-.86.688-.54.436-.572.543-1.32 1.263-1.416 1.603c-.266.27-.47.614-.716.93l-.73 1c-.263.33-.464.72-.702 1.092l-.707 1.155c-.227.4-.415.834-.63 1.26l-.316.648a4.95 4.95 0 0 0-.295.67c-.33.93-.778 1.843-1.02 2.86l-.42 1.517-.296 1.58c-.122.527-.148 1.075-.2 1.62l-.085.823-.044.413-.004.418c-.115 2.232.164 4.516.635 6.775l.467 1.673.118.42.154.4.3.786.295.8c.085.26.266.552.394.827l.803 1.6c1.193 2.007 2.596 3.882 4.237 5.494 1.683 1.558 3.5 2.953 5.445 3.984 1.96.995 3.95 1.863 5.96 2.296.987.304 2 .372 2.95.556.24.05.48.067.72.08l.712.05 1.4.087 2.625-.095 1.22-.133c.395-.054.8-.058 1.155-.155l2.08-.428 1.73-.5.75-.225.65-.254 1.027-.408.86-.333m27.575-2.736l.46-1.122 1.213-3.185 1.52-5.027.66-3.133.483-3.488c.228-2.434.24-5.075-.07-7.812-.32-2.737-1.014-5.557-2.067-8.338s-2.507-5.5-4.258-8.1c-1.76-2.588-3.816-5.043-6.075-7.32l-3.5-3.33-3.648-3.222-7.216-6.17L89.1 69.62l-.832-.635-1.716-1.328-6.206-5.104-5.013-4.6-3.608-3.8c-.958-1.098-1.627-2.033-2.06-2.68l-.468-.756-.153-.264.196.232.583.662c.517.573 1.33 1.36 2.4 2.316l3.997 3.294 5.385 4.025 6.5 4.576L89.9 66.76l.955.642.902.662 3.646 2.765 7.47 5.998 1.882 1.6 1.87 1.622 3.68 3.458c2.37 2.42 4.563 5.05 6.4 7.883 1.837 2.823 3.315 5.842 4.337 8.914 1.038 3.067 1.58 6.187 1.745 9.15.182 2.967-.077 5.782-.536 8.317-.44 2.542-1.142 4.803-1.85 6.757s-1.482 3.597-2.153 4.922a50.56 50.56 0 0 1-1.668 3.014l-.637 1.035M50.925 47.227l-.063-1.97-.02-1.04c.005-.38.06-.8.093-1.232.088-.88.12-1.9.38-2.966l.335-1.683c.13-.58.35-1.157.53-1.764.333-1.228.904-2.447 1.472-3.72.303-.627.683-1.23 1.03-1.86l.546-.94.646-.9.985-1.345.372-.416 1.5-1.672c1.12-.997 2.213-2.028 3.447-2.84l.894-.643c.303-.204.63-.36.942-.543l1.87-1.016c1.283-.55 2.505-1.12 3.74-1.432l1.772-.508 1.7-.308c1.072-.243 2.08-.255 2.963-.325l1.232-.07 1.047.043 1.97.107-1.957.287-1.023.136-1.192.25-2.816.684-1.58.472-1.645.628c-1.145.387-2.248 1.035-3.432 1.588l-1.702 1.036-.853.545-1.65 1.227-.4.315-1.922 1.757-1.77 1.9-.312.415-.622.824-.62.815-.55.853-1.05 1.696-1.628 3.417-.65 1.638-.498 1.573c-.357 1.007-.522 1.955-.733 2.796l-.273 1.185-.16 1.03-.33 1.954m43.327-11.49c-1.04-1.2-3.328-3.037-3.328-3.037 4.236-.32 8.617 3.218 8.617 3.218-3.208 2.135-4.25 1.02-5.3-.18zm5.113 47.072L70.35 59.558c-6.87-5.503-9.314-16.056-2.765-22.696 5.62-5.696 12.812-4.55 18.853.02 1.195.904 2.323 1.897 3.4 2.938 4.014 3.88 13.92 4.204 20.805-1.407 0 0-4.696-13.505-16.803-15.66-5.408-1.217-9.733-.98-9.733-.98l-.022.017-1.017-.017c-8.34 0-14.968 2.9-19.714 7.33-.014.012-.03.02-.042.037-5.472 5.118-8.428 12.25-8.592 19.245-.133 5.736 1.58 14.182 8.872 20.054l28.238 22.6c24.692 19.96 12.27 53.74-17.528 53.74-27.568 0-39.35-29.33-21.288-52.208l-.6-.467C30.05 115.47 41.82 150.526 76.942 150.526c38.817 0 53.672-42.547 22.427-67.72" fill="#ffe4b5"/></svg>